# xmcd CD database file
#
# Track frame offsets:
#	150
#	7510
#	11337
#	14027
#	19110
#	22360
#	27107
#	30197
#	34672
#	37495
#	43020
#	46657
#	51847
#	55215
#	61127
#	65202
#	70150
#	73520
#	78400
#	81620
#	84290
#	86360
#	89915
#	92717
#	99047
#	103232
#	108062
#	111317
#	116737
#	120335
#	125022
#	128302
#	133565
#	137022
#	140307
#	142565
#	145400
#	147407
#	151607
#	154400
#	158930
#	161882
#	166730
#	170059
#	175782
#	179462
#	184682
#	188434
#	192252
#	195142
#	199467
#	202645
#	205575
#	207837
#	212302
#	215420
#	219475
#	222220
#	227222
#	230745
#	237080
#	241335
#	246135
#	249572
#	255952
#	260195
#	264917
#	268190
#	272550
#	275537
#	279560
#	282330
#	287242
#	290692
#	294647
#	297380
#	302042
#	305182
#	309162
#	312062
#	319305
#	323972
#	329145
#
# Disc length: 4442 seconds
#
# Revision: 4
# Processed by: cddbd v1.5PL3 Copyright (c) Steve Scherf et al.
# Submitted via: CDex 1.51
#
DISCID=c8115853
DTITLE=増進会出版社 - 速読速聴・英単語 Listening CD (Disk 1)
DYEAR=1999
DGENRE=Speech
TTITLE0=introduction
TTITLE1=01-slow
TTITLE2=01-fast
TTITLE3=02-slow
TTITLE4=02-fast
TTITLE5=03-slow
TTITLE6=03-fast
TTITLE7=04-slow
TTITLE8=04-fast
TTITLE9=05-slow
TTITLE10=05-fast
TTITLE11=06-slow
TTITLE12=06-fast
TTITLE13=07-slow
TTITLE14=07-fast
TTITLE15=08-slow
TTITLE16=08-fast
TTITLE17=09-slow
TTITLE18=09-fast
TTITLE19=10-slow
TTITLE20=10-fast
TTITLE21=11-slow
TTITLE22=11-fast
TTITLE23=12-slow
TTITLE24=12-fast
TTITLE25=13-slow
TTITLE26=13-fast
TTITLE27=14-slow
TTITLE28=14-fast
TTITLE29=15-slow
TTITLE30=15-fast
TTITLE31=16-slow
TTITLE32=16-fast
TTITLE33=17-slow
TTITLE34=17-fast
TTITLE35=18-slow
TTITLE36=18-fast
TTITLE37=19-slow
TTITLE38=19-fast
TTITLE39=20-slow
TTITLE40=20-fast
TTITLE41=21-slow
TTITLE42=21-fast
TTITLE43=22-slow
TTITLE44=22-fast
TTITLE45=23-slow
TTITLE46=23-fast
TTITLE47=24-slow
TTITLE48=24-fast
TTITLE49=25-slow
TTITLE50=25-fast
TTITLE51=26-slow
TTITLE52=26-fast
TTITLE53=27-slow
TTITLE54=27-fast
TTITLE55=28-slow
TTITLE56=28-fast
TTITLE57=29-slow
TTITLE58=29-fast
TTITLE59=30-slow
TTITLE60=30-fast
TTITLE61=31-slow
TTITLE62=31-fast
TTITLE63=32-slow
TTITLE64=32-fast
TTITLE65=33-slow
TTITLE66=33-fast
TTITLE67=34-slow
TTITLE68=34-fast
TTITLE69=35-slow
TTITLE70=35-fast
TTITLE71=36-slow
TTITLE72=36-fast
TTITLE73=37-slow
TTITLE74=37-fast
TTITLE75=38-slow
TTITLE76=38-fast
TTITLE77=39-slow
TTITLE78=39-fast
TTITLE79=40-slow
TTITLE80=40-fast
TTITLE81=41-slow
TTITLE82=41-fast
EXTD=YEAR: 1999
EXTT0=
EXTT1=
EXTT2=
EXTT3=
EXTT4=
EXTT5=
EXTT6=
EXTT7=
EXTT8=
EXTT9=
EXTT10=
EXTT11=
EXTT12=
EXTT13=
EXTT14=
EXTT15=
EXTT16=
EXTT17=
EXTT18=
EXTT19=
EXTT20=
EXTT21=
EXTT22=
EXTT23=
EXTT24=
EXTT25=
EXTT26=
EXTT27=
EXTT28=
EXTT29=
EXTT30=
EXTT31=
EXTT32=
EXTT33=
EXTT34=
EXTT35=
EXTT36=
EXTT37=
EXTT38=
EXTT39=
EXTT40=
EXTT41=
EXTT42=
EXTT43=
EXTT44=
EXTT45=
EXTT46=
EXTT47=
EXTT48=
EXTT49=
EXTT50=
EXTT51=
EXTT52=
EXTT53=
EXTT54=
EXTT55=
EXTT56=
EXTT57=
EXTT58=
EXTT59=
EXTT60=
EXTT61=
EXTT62=
EXTT63=
EXTT64=
EXTT65=
EXTT66=
EXTT67=
EXTT68=
EXTT69=
EXTT70=
EXTT71=
EXTT72=
EXTT73=
EXTT74=
EXTT75=
EXTT76=
EXTT77=
EXTT78=
EXTT79=
EXTT80=
EXTT81=
EXTT82=
PLAYORDER=
